<svg width="45" height="44" viewBox="0 0 45 44" fill="none" xmlns="http://www.w3.org/2000/svg">
<g filter="url(#filter0_d_1276_4205)">
<circle cx="22.5" cy="18.5" r="18.5" fill="#535353"/>
</g>
<path d="M22.4859 10C21.996 10 21.5261 10.2322 21.1797 10.6455C20.8333 11.0589 20.6387 11.6195 20.6387 12.204V18.0814C20.6387 18.666 20.8333 19.2266 21.1797 19.6399C21.5261 20.0533 21.996 20.2855 22.4859 20.2855C22.9758 20.2855 23.4457 20.0533 23.7921 19.6399C24.1385 19.2266 24.3331 18.666 24.3331 18.0814V12.204C24.3331 11.6195 24.1385 11.0589 23.7921 10.6455C23.4457 10.2322 22.9758 10 22.4859 10Z" fill="white" stroke="white" stroke-width="1.3" stroke-linecap="round" stroke-linejoin="round"/>
<path d="M27.5 16.2871V17.8109C27.5 19.2253 26.9996 20.5819 26.1088 21.582C25.218 22.5822 24.0098 23.1441 22.75 23.1441C21.4902 23.1441 20.282 22.5822 19.3912 21.582C18.5004 20.5819 18 19.2253 18 17.8109V16.2871" stroke="white" stroke-width="1.3" stroke-linecap="round" stroke-linejoin="round"/>
<path d="M22.75 23.1426V25.9997" stroke="white" stroke-width="1.3" stroke-linecap="round" stroke-linejoin="round"/>
<path d="M19.584 26H25.3895" stroke="white" stroke-width="1.3" stroke-linecap="round" stroke-linejoin="round"/>
<defs>
<filter id="filter0_d_1276_4205" x="0" y="0" width="45" height="45" filterUnits="userSpaceOnUse" color-interpolation-filters="sRGB">
<feFlood flood-opacity="0" result="BackgroundImageFix"/>
<feColorMatrix in="SourceAlpha" type="matrix" values="0 0 0 0 0 0 0 0 0 0 0 0 0 0 0 0 0 0 127 0" result="hardAlpha"/>
<feOffset dy="4"/>
<feGaussianBlur stdDeviation="2"/>
<feComposite in2="hardAlpha" operator="out"/>
<feColorMatrix type="matrix" values="0 0 0 0 0 0 0 0 0 0 0 0 0 0 0 0 0 0 0.25 0"/>
<feBlend mode="normal" in2="BackgroundImageFix" result="effect1_dropShadow_1276_4205"/>
<feBlend mode="normal" in="SourceGraphic" in2="effect1_dropShadow_1276_4205" result="shape"/>
</filter>
</defs>
</svg>
