<svg width="45" height="45" viewBox="0 0 45 45" fill="none" xmlns="http://www.w3.org/2000/svg">
<g filter="url(#filter0_d_1276_4253)">
<circle cx="22.5" cy="18.5" r="18.5" fill="#535353"/>
</g>
<path d="M24.9883 16.8867V14.0742L23.6523 15.5586V16.8867C23.6506 17.877 22.9141 18.6855 22 18.6836C21.6643 18.6855 21.3531 18.5781 21.0859 18.3906L20.1367 19.4648C20.6482 19.9023 21.2951 20.168 22 20.168C23.6488 20.168 24.9883 18.7012 24.9883 16.8867Z" fill="white"/>
<path d="M27.6426 16.7109H26.5879C26.5106 16.7109 26.4473 16.7813 26.4473 16.8672C26.4473 19.6074 24.4487 21.8281 21.9825 21.8281C20.8751 21.8281 19.8608 21.3789 19.0821 20.6367L18.1329 21.6914C18.9924 22.5352 20.0805 23.1035 21.2793 23.2734V25.2656H18.7305C18.4862 25.2656 18.2928 25.5449 18.2911 25.8906V26.5938C18.2928 26.6797 18.342 26.75 18.3965 26.75H25.5684C25.6247 26.75 25.6739 26.6797 25.6739 26.5938V25.8906C25.6739 25.5449 25.4805 25.2656 25.2344 25.2656H22.6153V23.2734C25.5209 22.9238 27.7833 20.1895 27.7833 16.8672C27.7833 16.7813 27.72 16.7109 27.6426 16.7109ZM27.8729 9.33399L27.1083 8.51563C27.0538 8.45703 26.9659 8.45703 26.9114 8.51758L24.6438 11.0371C24.1499 9.97657 23.1426 9.25 21.9825 9.25C20.3319 9.25 18.9942 10.7207 18.9942 12.5313V16.9063C18.9942 17.0371 19.0012 17.166 19.0153 17.293L17.82 18.6211C17.6354 18.0762 17.5334 17.4844 17.5352 16.8672C17.5317 16.7813 17.4684 16.7109 17.3946 16.7109H16.3399C16.2625 16.7109 16.1993 16.7813 16.1993 16.8672C16.1993 17.9023 16.419 18.8789 16.8075 19.7461L14.3993 22.4219C14.3448 22.4824 14.3448 22.582 14.3993 22.6426L15.1499 23.4766C15.2043 23.5371 15.294 23.5371 15.3485 23.4766L27.8747 9.5586L27.8764 9.55664C27.9309 9.49414 27.9292 9.39453 27.8729 9.33399ZM20.3301 15.832V12.5313C20.3301 11.543 21.0667 10.7344 21.9825 10.7344C22.7911 10.7344 23.4608 11.3652 23.6049 12.1934L20.3301 15.832Z" fill="white"/>
<defs>
<filter id="filter0_d_1276_4253" x="0" y="0" width="45" height="45" filterUnits="userSpaceOnUse" color-interpolation-filters="sRGB">
<feFlood flood-opacity="0" result="BackgroundImageFix"/>
<feColorMatrix in="SourceAlpha" type="matrix" values="0 0 0 0 0 0 0 0 0 0 0 0 0 0 0 0 0 0 127 0" result="hardAlpha"/>
<feOffset dy="4"/>
<feGaussianBlur stdDeviation="2"/>
<feComposite in2="hardAlpha" operator="out"/>
<feColorMatrix type="matrix" values="0 0 0 0 0 0 0 0 0 0 0 0 0 0 0 0 0 0 0.25 0"/>
<feBlend mode="normal" in2="BackgroundImageFix" result="effect1_dropShadow_1276_4253"/>
<feBlend mode="normal" in="SourceGraphic" in2="effect1_dropShadow_1276_4253" result="shape"/>
</filter>
</defs>
</svg>
