<svg width="25" height="25" viewBox="0 0 25 25" fill="none" xmlns="http://www.w3.org/2000/svg">
<g clip-path="url(#clip0_593_1419)">
<path d="M20.8333 18.7503C21.0988 18.7506 21.3542 18.8523 21.5473 19.0345C21.7403 19.2168 21.8565 19.4659 21.8721 19.7309C21.8876 19.996 21.8014 20.257 21.631 20.4606C21.4606 20.6642 21.2188 20.795 20.9552 20.8264L20.8333 20.8337H4.16667C3.90117 20.8334 3.6458 20.7317 3.45274 20.5494C3.25968 20.3672 3.14351 20.1181 3.12795 19.853C3.11239 19.588 3.19862 19.327 3.36903 19.1234C3.53943 18.9198 3.78115 18.789 4.04479 18.7576L4.16667 18.7503H20.8333ZM20.8333 11.4587C21.1096 11.4587 21.3746 11.5684 21.5699 11.7638C21.7653 11.9591 21.875 12.2241 21.875 12.5003C21.875 12.7766 21.7653 13.0415 21.5699 13.2369C21.3746 13.4322 21.1096 13.542 20.8333 13.542H4.16667C3.8904 13.542 3.62545 13.4322 3.4301 13.2369C3.23475 13.0415 3.125 12.7766 3.125 12.5003C3.125 12.2241 3.23475 11.9591 3.4301 11.7638C3.62545 11.5684 3.8904 11.4587 4.16667 11.4587H20.8333ZM20.8333 4.16699C21.1096 4.16699 21.3746 4.27674 21.5699 4.47209C21.7653 4.66744 21.875 4.93239 21.875 5.20866C21.875 5.48493 21.7653 5.74988 21.5699 5.94523C21.3746 6.14058 21.1096 6.25033 20.8333 6.25033H4.16667C3.8904 6.25033 3.62545 6.14058 3.4301 5.94523C3.23475 5.74988 3.125 5.48493 3.125 5.20866C3.125 4.93239 3.23475 4.66744 3.4301 4.47209C3.62545 4.27674 3.8904 4.16699 4.16667 4.16699H20.8333Z" fill="#252641"/>
</g>
<defs>
<clipPath id="clip0_593_1419">
<rect width="25" height="25" fill="white"/>
</clipPath>
</defs>
</svg>
