<svg width="38" height="38" viewBox="0 0 38 38" fill="none" xmlns="http://www.w3.org/2000/svg">
<circle cx="19" cy="19" r="19" fill="#C1C1C1"/>
<path d="M28.4375 15.8125C29.1562 16.0312 29.1562 17 28.4375 17.2188L19.7188 19.9062C19.0938 20.0938 18.5312 20 18.25 19.9062L12.1562 18.0312C11.75 18.2812 11.5312 18.7188 11.5 19.1875C11.7812 19.3438 12 19.6562 12 20C12 20.3438 11.8125 20.625 11.5625 20.8125L12.3438 24.4062C12.4062 24.7188 12.1875 25 11.875 25H10.0938C9.78125 25 9.5625 24.7188 9.625 24.4062L10.4062 20.8125C10.1562 20.625 10 20.3438 10 20C10 19.6562 10.1875 19.3438 10.5 19.1562C10.5312 18.625 10.7188 18.0938 11.0625 17.6875L9.53125 17.2188C8.8125 17 8.8125 16.0312 9.53125 15.8125L18.25 13.125C18.7188 12.9688 19.25 12.9688 19.7188 13.125L28.4375 15.8125ZM20 20.875L24.5312 19.4688L25 23C25 24.125 22.3125 25 19 25C15.6562 25 13 24.125 13 23L13.4375 19.4688L17.9688 20.875C18.3438 21 19.125 21.125 20 20.875Z" fill="white"/>
</svg>
