<svg width="34" height="31" viewBox="0 0 34 31" fill="none" xmlns="http://www.w3.org/2000/svg">
<path d="M30.9375 0.75C32.4609 0.75 33.75 2.03906 33.75 3.5625V22.3125C33.75 23.8945 32.4609 25.125 30.9375 25.125H19.6875L20.625 27.9375H24.8438C25.6055 27.9375 26.25 28.582 26.25 29.3438C26.25 30.1641 25.6055 30.75 24.8438 30.75H8.90625C8.08594 30.75 7.5 30.1641 7.5 29.3438C7.5 28.582 8.08594 27.9375 8.90625 27.9375H13.125L14.0625 25.125H2.8125C1.23047 25.125 0 23.8945 0 22.3125V3.5625C0 2.03906 1.23047 0.75 2.8125 0.75H30.9375ZM30 21.375V4.5H3.75V21.375H30Z" fill="#5B72EE"/>
</svg>
