<svg width="38" height="38" viewBox="0 0 38 38" fill="none" xmlns="http://www.w3.org/2000/svg">
<circle cx="19" cy="19" r="19" fill="#182045"/>
<path d="M22 14C22 15.6875 20.6562 17 19 17C17.3125 17 16 15.6875 16 14C16 12.3438 17.3125 11 19 11C20.6562 11 22 12.3438 22 14ZM18.2812 18.5625C18.4062 18.625 18.5 18.75 18.5 18.9062V26.5938C18.5 26.9062 18.125 27.125 17.8438 26.9688C15.9375 26 13.1875 25.75 11.8125 25.6562C11.3438 25.6562 11 25.2812 11 24.8125V17.875C11 17.375 11.4062 17 11.9062 17.0312C13.4375 17.0938 16.4375 17.4062 18.2812 18.5625ZM26.0625 17.0312C26.5625 17 27 17.375 27 17.875V24.8125C27 25.2812 26.625 25.6562 26.1562 25.6875C24.7812 25.75 22.0312 26 20.125 26.9688C19.8438 27.125 19.5 26.9062 19.5 26.5938V18.9062C19.5 18.7812 19.5625 18.625 19.6875 18.5625C21.5312 17.4062 24.5312 17.0938 26.0625 17.0312Z" fill="white"/>
</svg>
