<svg width="27" height="30" viewBox="0 0 27 30" fill="none" xmlns="http://www.w3.org/2000/svg">
<path d="M20.25 15H6.75V18.75H20.25V15ZM26.5078 6.15234L19.6242 0.410156C19.3078 0.146484 18.8789 0 18.4289 0H18V7.5H27V7.14258C27 6.77344 26.8242 6.41602 26.5078 6.15234ZM15.75 7.96875V0H1.6875C0.752344 0 0 0.626953 0 1.40625V28.5938C0 29.373 0.752344 30 1.6875 30H25.3125C26.2477 30 27 29.373 27 28.5938V9.375H17.4375C16.5094 9.375 15.75 8.74219 15.75 7.96875ZM4.5 4.21875C4.5 3.95977 4.75172 3.75 5.0625 3.75H10.6875C10.9983 3.75 11.25 3.95977 11.25 4.21875V5.15625C11.25 5.41523 10.9983 5.625 10.6875 5.625H5.0625C4.75172 5.625 4.5 5.41523 4.5 5.15625V4.21875ZM4.5 7.96875C4.5 7.70977 4.75172 7.5 5.0625 7.5H10.6875C10.9983 7.5 11.25 7.70977 11.25 7.96875V8.90625C11.25 9.16523 10.9983 9.375 10.6875 9.375H5.0625C4.75172 9.375 4.5 9.16523 4.5 8.90625V7.96875ZM22.5 25.7812C22.5 26.0402 22.2483 26.25 21.9375 26.25H16.3125C16.0017 26.25 15.75 26.0402 15.75 25.7812V24.8438C15.75 24.5848 16.0017 24.375 16.3125 24.375H21.9375C22.2483 24.375 22.5 24.5848 22.5 24.8438V25.7812ZM22.5 14.0625V19.6875C22.5 20.2055 21.9966 20.625 21.375 20.625H5.625C5.00344 20.625 4.5 20.2055 4.5 19.6875V14.0625C4.5 13.5445 5.00344 13.125 5.625 13.125H21.375C21.9966 13.125 22.5 13.5445 22.5 14.0625Z" fill="#F48C06"/>
</svg>
