<svg width="25" height="25" viewBox="0 0 25 25" fill="none" xmlns="http://www.w3.org/2000/svg">
<circle cx="12.5" cy="12.5" r="12.5" fill="#182045"/>
<path d="M8.84615 7C7.83077 7 7 7.83077 7 8.84615V16.6923C7 17.7077 7.83077 18.5385 8.84615 18.5385H12.6252V18.4517L12.856 17.6154H8.84615C8.33846 17.6154 7.92308 17.2 7.92308 16.6923V8.84615C7.92308 8.33846 8.33846 7.92308 8.84615 7.92308H11.7598C12.0829 8.01538 12.0769 8.43077 12.0769 8.84615V10.2308C12.0769 10.5077 12.2615 10.6923 12.5385 10.6923H13.9231C14.3846 10.6923 14.8462 10.6923 14.8462 11.1538V14.8462L15.7692 13.9231V10.6923C15.7692 10.1846 15.3132 9.71754 14.5286 8.93246C14.3902 8.84015 14.2923 8.70769 14.1538 8.61538C14.0615 8.47692 13.9286 8.37862 13.8363 8.24015C13.0522 7.456 12.5846 7 12.0769 7H8.84615ZM17.7742 13.5049C17.6472 13.5049 17.5203 13.5566 17.428 13.6489L16.8797 14.1972L18.2643 15.5818L18.8126 15.0335C18.9972 14.8489 18.9972 14.572 18.8126 14.3412L18.1203 13.6489C18.0283 13.5573 17.904 13.5056 17.7742 13.5049ZM16.3748 14.6588L14.1972 16.9665C14.1511 16.9665 14.1105 17.0209 14.1105 17.0671L13.6055 18.7258C13.5594 18.772 13.6028 18.8671 13.6489 18.9137C13.6951 18.9598 13.7325 18.9566 13.7786 18.9566H13.8368L15.4951 18.4522C15.5412 18.4522 15.5357 18.4406 15.5818 18.3945L17.8462 16.1445L16.3748 14.6588ZM14.3846 17.1972L15.0769 17.3412L15.2214 18.0769L14.2983 18.3077L14.1105 18.1203L14.3846 17.1972Z" fill="white"/>
</svg>
