<svg width="85" height="78" viewBox="0 0 85 78" fill="none" xmlns="http://www.w3.org/2000/svg">
<rect width="85" height="78" rx="4" fill="#FCDDB5"/>
<path d="M48.25 36H36.75V39.25H48.25V36ZM53.5807 28.332L47.7169 23.3555C47.4474 23.127 47.082 23 46.6987 23H46.3333V29.5H54V29.1902C54 28.8703 53.8503 28.5605 53.5807 28.332ZM44.4167 29.9062V23H32.4375C31.6409 23 31 23.5434 31 24.2188V47.7812C31 48.4566 31.6409 49 32.4375 49H52.5625C53.3591 49 54 48.4566 54 47.7812V31.125H45.8542C45.0635 31.125 44.4167 30.5766 44.4167 29.9062ZM34.8333 26.6562C34.8333 26.4318 35.0478 26.25 35.3125 26.25H40.1042C40.3689 26.25 40.5833 26.4318 40.5833 26.6562V27.4688C40.5833 27.6932 40.3689 27.875 40.1042 27.875H35.3125C35.0478 27.875 34.8333 27.6932 34.8333 27.4688V26.6562ZM34.8333 29.9062C34.8333 29.6818 35.0478 29.5 35.3125 29.5H40.1042C40.3689 29.5 40.5833 29.6818 40.5833 29.9062V30.7188C40.5833 30.9432 40.3689 31.125 40.1042 31.125H35.3125C35.0478 31.125 34.8333 30.9432 34.8333 30.7188V29.9062ZM50.1667 45.3438C50.1667 45.5682 49.9522 45.75 49.6875 45.75H44.8958C44.6311 45.75 44.4167 45.5682 44.4167 45.3438V44.5312C44.4167 44.3068 44.6311 44.125 44.8958 44.125H49.6875C49.9522 44.125 50.1667 44.3068 50.1667 44.5312V45.3438ZM50.1667 35.1875V40.0625C50.1667 40.5114 49.7378 40.875 49.2083 40.875H35.7917C35.2622 40.875 34.8333 40.5114 34.8333 40.0625V35.1875C34.8333 34.7386 35.2622 34.375 35.7917 34.375H49.2083C49.7378 34.375 50.1667 34.7386 50.1667 35.1875Z" fill="#F48C06"/>
</svg>
