<svg width="180" height="180" viewBox="0 0 180 180" fill="none" xmlns="http://www.w3.org/2000/svg">
<g filter="url(#filter0_d_501_1206)">
<g filter="url(#filter1_d_501_1206)">
<circle cx="90" cy="80" r="50" fill="#FCE8B5"/>
</g>
</g>
<path d="M78.3929 71.6071C77.8435 71.6071 77.3166 71.8254 76.9281 72.2139C76.5397 72.6023 76.3214 73.1292 76.3214 73.6786C76.3214 74.2279 76.5397 74.7548 76.9281 75.1433C77.3166 75.5318 77.8435 75.75 78.3929 75.75C78.9422 75.75 79.4691 75.5318 79.8576 75.1433C80.246 74.7548 80.4643 74.2279 80.4643 73.6786C80.4643 73.1292 80.246 72.6023 79.8576 72.2139C79.4691 71.8254 78.9422 71.6071 78.3929 71.6071ZM76.3214 88.1786C76.3214 87.6292 76.5397 87.1023 76.9281 86.7138C77.3166 86.3254 77.8435 86.1071 78.3929 86.1071C78.9422 86.1071 79.4691 86.3254 79.8576 86.7138C80.246 87.1023 80.4643 87.6292 80.4643 88.1786C80.4643 88.7279 80.246 89.2548 79.8576 89.6433C79.4691 90.0318 78.9422 90.25 78.3929 90.25C77.8435 90.25 77.3166 90.0318 76.9281 89.6433C76.5397 89.2548 76.3214 88.7279 76.3214 88.1786ZM67 61.7679C67 59.7077 67.8184 57.7319 69.2752 56.2752C70.7319 54.8184 72.7077 54 74.7679 54H104.804C106.864 54 108.84 54.8184 110.296 56.2752C111.753 57.7319 112.571 59.7077 112.571 61.7679V91.8036C112.571 93.8637 111.753 95.8395 110.296 97.2963C108.84 98.753 106.864 99.5714 104.804 99.5714H74.7679C72.7077 99.5714 70.7319 98.753 69.2752 97.2963C67.8184 95.8395 67 93.8637 67 91.8036V61.7679ZM73.2143 73.6786C73.2143 75.052 73.7599 76.3692 74.7311 77.3404C75.7022 78.3115 77.0194 78.8571 78.3929 78.8571C79.7663 78.8571 81.0835 78.3115 82.0547 77.3404C83.0258 76.3692 83.5714 75.052 83.5714 73.6786C83.5714 72.3051 83.0258 70.9879 82.0547 70.0168C81.0835 69.0456 79.7663 68.5 78.3929 68.5C77.0194 68.5 75.7022 69.0456 74.7311 70.0168C73.7599 70.9879 73.2143 72.3051 73.2143 73.6786ZM78.3929 83C77.0194 83 75.7022 83.5456 74.7311 84.5168C73.7599 85.4879 73.2143 86.8051 73.2143 88.1786C73.2143 89.552 73.7599 90.8692 74.7311 91.8404C75.7022 92.8115 77.0194 93.3571 78.3929 93.3571C79.7663 93.3571 81.0835 92.8115 82.0547 91.8404C83.0258 90.8692 83.5714 89.552 83.5714 88.1786C83.5714 86.8051 83.0258 85.4879 82.0547 84.5168C81.0835 83.5456 79.7663 83 78.3929 83ZM87.7143 73.1607C87.7143 74.0183 88.4103 74.7143 89.2679 74.7143H104.804C105.216 74.7143 105.611 74.5506 105.902 74.2593C106.193 73.9679 106.357 73.5727 106.357 73.1607C106.357 72.7487 106.193 72.3535 105.902 72.0622C105.611 71.7708 105.216 71.6071 104.804 71.6071H89.2679C88.8558 71.6071 88.4607 71.7708 88.1693 72.0622C87.878 72.3535 87.7143 72.7487 87.7143 73.1607ZM89.2679 86.1071C88.8558 86.1071 88.4607 86.2708 88.1693 86.5622C87.878 86.8535 87.7143 87.2487 87.7143 87.6607C87.7143 88.0727 87.878 88.4679 88.1693 88.7593C88.4607 89.0506 88.8558 89.2143 89.2679 89.2143H104.804C105.216 89.2143 105.611 89.0506 105.902 88.7593C106.193 88.4679 106.357 88.0727 106.357 87.6607C106.357 87.2487 106.193 86.8535 105.902 86.5622C105.611 86.2708 105.216 86.1071 104.804 86.1071H89.2679ZM73.2143 61.7679C73.2143 62.6254 73.9103 63.3214 74.7679 63.3214H104.804C105.216 63.3214 105.611 63.1577 105.902 62.8664C106.193 62.575 106.357 62.1799 106.357 61.7679C106.357 61.3558 106.193 60.9607 105.902 60.6693C105.611 60.378 105.216 60.2143 104.804 60.2143H74.7679C74.3558 60.2143 73.9607 60.378 73.6693 60.6693C73.378 60.9607 73.2143 61.3558 73.2143 61.7679Z" fill="#FBC02D"/>
<defs>
<filter id="filter0_d_501_1206" x="36" y="30" width="108" height="108" filterUnits="userSpaceOnUse" color-interpolation-filters="sRGB">
<feFlood flood-opacity="0" result="BackgroundImageFix"/>
<feColorMatrix in="SourceAlpha" type="matrix" values="0 0 0 0 0 0 0 0 0 0 0 0 0 0 0 0 0 0 127 0" result="hardAlpha"/>
<feOffset dy="4"/>
<feGaussianBlur stdDeviation="2"/>
<feComposite in2="hardAlpha" operator="out"/>
<feColorMatrix type="matrix" values="0 0 0 0 0 0 0 0 0 0 0 0 0 0 0 0 0 0 0.25 0"/>
<feBlend mode="normal" in2="BackgroundImageFix" result="effect1_dropShadow_501_1206"/>
<feBlend mode="normal" in="SourceGraphic" in2="effect1_dropShadow_501_1206" result="shape"/>
</filter>
<filter id="filter1_d_501_1206" x="0" y="0" width="180" height="180" filterUnits="userSpaceOnUse" color-interpolation-filters="sRGB">
<feFlood flood-opacity="0" result="BackgroundImageFix"/>
<feColorMatrix in="SourceAlpha" type="matrix" values="0 0 0 0 0 0 0 0 0 0 0 0 0 0 0 0 0 0 127 0" result="hardAlpha"/>
<feOffset dy="10"/>
<feGaussianBlur stdDeviation="20"/>
<feColorMatrix type="matrix" values="0 0 0 0 0.212 0 0 0 0 0.238778 0 0 0 0 0.533333 0 0 0 0.06 0"/>
<feBlend mode="normal" in2="BackgroundImageFix" result="effect1_dropShadow_501_1206"/>
<feBlend mode="normal" in="SourceGraphic" in2="effect1_dropShadow_501_1206" result="shape"/>
</filter>
</defs>
</svg>
