<svg width="297" height="302" viewBox="0 0 297 302" fill="none" xmlns="http://www.w3.org/2000/svg">
<g opacity="0.15" filter="url(#filter0_d_1627_4821)">
<path d="M222.711 292.02C210.915 283.76 202.392 280.022 194.485 278.105C192.128 277.533 189.678 277.6 187.273 277.913C175.047 279.501 162.648 277.798 151.073 272.916C138.352 267.551 127.056 258.527 118.276 246.716C109.497 234.906 103.53 220.707 100.952 205.491C98.3735 190.275 99.2716 174.556 103.559 159.853C103.771 158.471 104.019 157.037 104.304 155.552C112.013 115.373 90.5497 92.3595 90.4583 92.2618C90.4557 92.259 90.4588 92.2592 90.4601 92.2556C90.4615 92.2518 90.4605 92.2475 90.4575 92.2447C80.9789 83.5643 68.0776 76.9592 51.2432 72.0005C-2.74847 56.0972 0.946822 6.8835 1.10781 5.00796C1.11293 4.94834 1.11274 4.92287 1.11274 4.86302C1.11274 3.8341 1.94685 3 2.97576 3H272.779C283.825 3 292.779 11.9543 292.779 23V267.985C292.779 271.779 291.756 275.537 289.491 278.58C278.436 293.432 264.156 301.001 249.614 301C240.507 300.998 231.294 298.029 222.711 292.02Z" fill="url(#paint0_linear_1627_4821)"/>
</g>
<g opacity="0.3" filter="url(#filter1_d_1627_4821)">
<path d="M233.02 264.158C221.537 257.357 217.048 252.241 209.045 250.968C202.854 249.91 197.876 249.77 193.587 250.192C190.716 250.475 188.075 251.754 185.64 253.3C173.699 260.877 160.067 264.306 146.409 263.108C131.35 261.788 117.063 254.915 105.67 243.51C98.1874 236.939 92.3471 228.21 88.7403 218.206C83.8678 206.762 81.4152 194.156 81.5822 181.414C81.7493 168.672 84.5313 156.156 89.7015 144.886C99.5627 119.077 117.996 106.129 123.804 101.031C132.426 93.4739 138.968 83.2135 142.644 71.4826C146.32 59.7517 146.974 47.0493 144.528 34.9011C141.924 21.9698 151.583 3.92957 164.773 4.09769C201.298 4.56325 247.459 3.8986 273.56 3.41845C284.79 3.21188 293.999 12.2493 293.999 23.481V241.817C293.999 243.496 293.594 245.15 292.817 246.639C292.563 247.126 292.269 247.598 291.937 248.035C279.129 264.956 265.563 270.04 254.141 270.039C246.798 270.004 239.564 267.99 233.02 264.158Z" fill="url(#paint1_linear_1627_4821)"/>
</g>
<path d="M145.89 175.411H213.659C217.925 175.411 221.321 171.776 221.299 167.393V109.166C221.299 104.79 217.931 101.15 213.659 101.15H145.89C141.618 101.15 138.25 104.79 138.25 109.166V167.395C138.25 171.771 141.618 175.411 145.89 175.411Z" stroke="white" stroke-width="2"/>
<path fill-rule="evenodd" clip-rule="evenodd" d="M198.691 131.288C198.691 131.282 198.687 131.277 198.681 131.277C193.562 131.271 189.408 126.877 189.408 121.468V95.7637C189.408 90.3501 193.568 85.9542 198.691 85.9542H206.037C211.345 85.9542 216.437 83.844 220.187 80.0872C222.405 77.8644 224.191 76.0723 224.369 75.8848C225.086 74.9104 226.316 74.2607 227.648 74.2607C230.025 74.2607 231.951 76.2963 231.951 78.8082V84.1713C231.951 85.156 232.749 85.9542 233.734 85.9542C238.857 85.9542 243.017 90.3501 243.017 95.7637V121.489C243.017 126.903 238.857 131.299 233.734 131.299H198.702C198.696 131.299 198.691 131.294 198.691 131.288Z" fill="url(#paint2_linear_1627_4821)"/>
<path d="M227.648 75.8844C229.185 75.8844 230.414 77.1837 230.414 78.8078C230.414 79.6826 230.414 82.1595 230.414 84.2587C230.414 86.0922 231.9 87.5779 233.734 87.5779C238.017 87.5779 241.48 91.2375 241.48 95.7633V121.489C241.48 126.015 238.017 129.674 233.734 129.674H198.691C194.408 129.674 190.945 126.015 190.945 121.489V95.7633C190.945 91.2375 194.408 87.5779 198.691 87.5779H206.658C211.962 87.5779 217.048 85.4695 220.792 81.7129C223.211 79.2863 225.423 77.0653 225.475 77.0104C225.988 76.3175 226.766 75.8844 227.648 75.8844ZM227.648 72.6362C225.926 72.6362 224.307 73.4158 223.201 74.8017C222.845 75.1653 221.558 76.4585 219.574 78.4496C215.823 82.2144 210.725 84.3297 205.41 84.3297H198.691C192.728 84.3297 187.871 89.4618 187.871 95.7633V121.489C187.871 127.79 192.728 132.922 198.691 132.922H233.734C239.697 132.922 244.554 127.79 244.554 121.489V95.7633C244.554 89.4618 239.697 84.3297 233.734 84.3297C233.598 84.3297 233.488 84.2196 233.488 84.0838V78.8078C233.488 75.408 230.865 72.6362 227.648 72.6362Z" fill="white"/>
<path fill-rule="evenodd" clip-rule="evenodd" d="M202.584 119.02H229.84C230.926 119.02 231.807 118.089 231.807 116.941C231.807 115.793 230.926 114.862 229.84 114.862H202.584C201.498 114.862 200.617 115.793 200.617 116.941C200.617 118.089 201.498 119.02 202.584 119.02Z" fill="white"/>
<path fill-rule="evenodd" clip-rule="evenodd" d="M202.584 111.073H229.84C230.926 111.073 231.807 110.142 231.807 108.994C231.807 107.846 230.926 106.915 229.84 106.915H202.584C201.498 106.915 200.617 107.846 200.617 108.994C200.617 110.142 201.498 111.073 202.584 111.073Z" fill="white"/>
<path fill-rule="evenodd" clip-rule="evenodd" d="M202.584 102.757H218.343C219.43 102.757 220.311 101.826 220.311 100.678C220.311 99.5308 219.43 98.5996 218.343 98.5996H202.584C201.498 98.5996 200.617 99.5308 200.617 100.678C200.617 101.848 201.498 102.757 202.584 102.757Z" fill="white"/>
<g filter="url(#filter2_d_1627_4821)">
<path fill-rule="evenodd" clip-rule="evenodd" d="M168.566 50.7752C168.206 50.7752 167.803 50.8847 167.38 51.1037L161.873 53.9506C159.057 55.3959 156.261 56.8632 153.445 58.3085C153.297 58.3961 153.148 58.4399 153 58.5056C152.936 58.5275 152.852 58.5713 152.788 58.5932C152.276 58.8111 151.708 58.4355 151.708 57.8792V57.323C151.708 53.4469 149.103 50.7533 145.376 50.7314C139.467 50.7314 133.559 50.7314 127.65 50.7314C123.034 50.7314 118.438 50.7314 113.821 50.7314C112.127 50.7314 110.581 51.3884 109.437 52.571C108.294 53.7535 107.68 55.374 107.68 57.126C107.68 64.9001 107.68 72.6962 107.68 80.4703C107.68 84.0399 110.348 86.8429 113.779 86.8429C124.41 86.8648 135.041 86.8429 145.673 86.8429C148.404 86.8429 150.776 84.9377 151.454 82.2222C151.581 81.7186 151.645 81.1492 151.708 80.5579C151.729 80.2732 151.772 79.9666 151.814 79.66L151.82 79.6133C151.881 79.1103 152.406 78.8057 152.873 79.0031C152.915 79.025 152.958 79.0469 153.021 79.0688C153.148 79.1126 153.318 79.1783 153.466 79.2659C155.795 80.4703 158.125 81.6748 160.433 82.8792C162.763 84.0837 165.071 85.2881 167.401 86.4706C167.803 86.6677 168.206 86.7991 168.544 86.7991C169.413 86.7991 169.942 86.0765 169.942 84.8939C169.942 74.1634 169.942 63.4329 169.942 52.7024C169.942 52.1549 169.794 50.7752 168.566 50.7752ZM148.701 80.536C148.701 82.3974 147.388 83.7552 145.567 83.7552C143.131 83.7552 140.696 83.7552 138.26 83.7552H114.097C111.936 83.7552 110.687 82.4631 110.687 80.2294C110.687 72.5429 110.687 64.8563 110.687 57.1698C110.687 55.2207 112 53.8411 113.864 53.8411C124.452 53.8411 135.041 53.8411 145.63 53.8411C147.388 53.8411 148.722 55.1988 148.722 57.0165C148.701 64.4183 148.701 72.1049 148.701 80.536ZM166.918 82.7697C166.915 82.7697 166.913 82.7691 166.91 82.7678L164.478 81.5215C163.525 81.0397 162.594 80.5579 161.641 80.0542C160.793 79.6162 159.925 79.1564 159.078 78.7184C157.003 77.6453 154.864 76.5285 152.746 75.4554C152.005 75.0832 151.687 74.5576 151.687 73.7254C151.708 70.5939 151.708 67.3966 151.687 63.9366C151.687 63.0606 152.005 62.5131 152.746 62.1408C155.838 60.5641 158.972 58.9436 162.001 57.3668C163.081 56.8194 164.161 56.25 165.22 55.7025C165.347 55.6368 165.474 55.5711 165.622 55.5273C165.669 55.5111 165.716 55.4827 165.772 55.4603C165.812 55.4441 165.853 55.4307 165.893 55.4127C166.38 55.1898 166.935 55.546 166.935 56.0821V82.7526C166.935 82.7621 166.927 82.7697 166.918 82.7697Z" fill="white"/>
<path fill-rule="evenodd" clip-rule="evenodd" d="M121.403 57.9142C119.921 57.8923 118.417 57.8923 116.935 57.9142C115.558 57.9361 114.584 58.9654 114.605 60.3231C114.626 61.6152 115.643 62.6006 116.977 62.6225C117.718 62.6225 118.438 62.6225 119.18 62.6225C119.921 62.6225 120.641 62.6444 121.382 62.6225C122.716 62.6006 123.712 61.5933 123.712 60.2793C123.69 58.9435 122.716 57.9142 121.403 57.9142Z" fill="white"/>
</g>
<g filter="url(#filter3_d_1627_4821)">
<path fill-rule="evenodd" clip-rule="evenodd" d="M252.46 205.718C252.46 204.356 252.44 202.953 252.44 201.57C252.44 200.146 252.44 198.701 252.46 197.298C252.479 194.161 252.498 190.921 252.421 187.743C252.286 182.17 249.373 175.401 241.558 174.658C241.037 174.617 240.536 174.576 240.034 174.576C235.075 174.576 231.236 177.011 229.249 181.448C228.303 183.533 227.821 185.761 227.821 188.073V189.538C227.821 197.711 227.821 206.152 227.821 214.469C227.821 215.294 227.879 216.141 227.975 216.966C228.747 223.735 233.879 228.668 240.169 228.668C242.446 228.668 244.723 227.966 246.749 226.645C250.415 224.251 252.267 220.495 252.421 215.15C252.498 212.013 252.479 208.814 252.46 205.718ZM248.389 214.778C248.369 216.141 248.099 217.606 247.655 218.989C246.691 221.94 244.645 223.673 241.771 223.962C241.192 224.024 240.613 224.066 240.092 224.066C239.262 224.066 238.491 223.983 237.796 223.839C234.67 223.178 232.799 220.908 232.046 216.904C231.931 216.264 231.873 215.563 231.873 214.82C231.873 213.231 231.873 211.662 231.873 210.073C231.853 202.891 231.853 195.461 231.911 188.155C231.931 186.773 232.239 185.204 232.799 183.615C233.763 180.953 235.77 179.343 238.433 179.054C239.996 178.889 241.346 178.93 242.504 179.178C245.63 179.838 247.501 182.109 248.254 186.112C248.369 186.773 248.427 187.474 248.427 188.362C248.446 191.643 248.427 195.007 248.427 198.227V201.508C248.427 202.726 248.427 203.964 248.427 205.182C248.427 208.339 248.446 211.58 248.389 214.778Z" fill="white"/>
<path fill-rule="evenodd" clip-rule="evenodd" d="M262.724 218.266C262.203 228.131 256.859 235.623 248.427 238.265C247.404 238.574 246.382 238.801 245.591 238.966C244.954 239.09 244.317 239.193 243.623 239.276C243.314 239.317 243.005 239.358 242.697 239.4C242.418 239.447 242.214 239.689 242.214 239.972V248.309C242.214 248.604 242.441 248.849 242.735 248.872C242.852 248.872 242.967 248.902 243.083 248.914C243.191 248.926 243.306 248.934 243.43 248.934H243.873C244.259 248.934 244.626 248.934 245.012 248.934C245.398 248.934 245.764 248.934 246.131 248.934C246.806 248.934 247.346 248.934 247.848 248.955C248.986 248.976 249.855 249.884 249.874 251.081C249.874 251.659 249.681 252.216 249.295 252.629C248.929 253.021 248.427 253.248 247.906 253.248C245.34 253.268 242.716 253.268 240.13 253.268C237.584 253.268 234.96 253.268 232.393 253.248C231.853 253.248 231.371 253.021 231.004 252.629C230.618 252.216 230.425 251.679 230.425 251.101C230.425 249.904 231.294 248.996 232.451 248.976C233.049 248.976 233.667 248.955 234.439 248.955C234.94 248.955 235.461 248.955 235.963 248.955C236.484 248.955 237.005 248.955 237.545 248.955C237.854 248.955 238.104 248.704 238.104 248.395V240.06C238.104 239.783 237.912 239.542 237.641 239.482C237.082 239.358 236.503 239.255 235.944 239.173C234.728 238.946 233.59 238.76 232.471 238.409C224.386 235.994 219.466 230.133 217.845 220.991C217.691 220.103 217.595 219.154 217.556 218.184C217.517 216.925 218.328 215.934 219.466 215.872C220.605 215.81 221.473 216.76 221.569 218.101C222.013 224.21 224.213 228.668 228.303 231.764C231.023 233.827 234.284 234.88 238.548 235.107C239.185 235.128 239.783 235.148 240.362 235.148C244.356 235.148 247.539 234.405 250.395 232.775C254.929 230.216 257.592 225.985 258.537 219.855C258.614 219.339 258.672 218.803 258.711 218.081C258.788 216.78 259.618 215.852 260.717 215.852C260.737 215.852 260.775 215.852 260.814 215.852C261.354 215.872 261.856 216.12 262.203 216.533C262.57 216.987 262.743 217.606 262.724 218.266Z" fill="white"/>
</g>
<g filter="url(#filter4_d_1627_4821)">
<path fill-rule="evenodd" clip-rule="evenodd" d="M213.659 174.411H145.89C142.221 174.411 139.25 171.271 139.25 167.395V109.166C139.25 105.29 142.221 102.15 145.89 102.15H213.659C217.327 102.15 220.299 105.29 220.299 109.166V167.395C220.319 171.271 217.327 174.411 213.659 174.411Z" fill="url(#paint3_linear_1627_4821)"/>
</g>
<path d="M207.08 119.43C207.08 118.813 206.386 118.467 205.865 118.797C202.775 120.753 199.744 122.675 196.729 124.586C194.625 125.92 193.35 128.237 193.35 130.728C193.35 131.837 193.35 132.946 193.35 134.055C193.35 138.62 195.687 142.87 199.545 145.313C201.611 146.621 203.677 147.927 205.748 149.227C207.019 150.028 207.06 150.006 207.06 148.447C207.08 138.768 207.08 129.088 207.08 119.43Z" fill="white"/>
<path d="M186.137 116.355C176.259 116.29 166.402 116.29 156.525 116.355C152.713 116.377 150.356 118.737 150.315 122.657C150.233 130.236 150.233 137.837 150.315 145.416C150.356 148.577 152.078 150.829 154.455 151.262C156.176 151.548 157.905 151.989 159.488 152.723C162.639 154.184 165.589 156.062 168.37 158.257C168.924 158.68 169.704 158.278 169.709 157.581C169.723 155.859 169.743 154.243 169.681 152.627C169.653 152.043 170.199 151.717 170.783 151.717C175.817 151.717 180.835 151.716 185.87 151.696C189.948 151.674 192.162 149.162 192.162 144.853C192.162 143.705 192.162 124.194 192.162 122.938C192.141 118.932 189.907 116.377 186.137 116.355ZM168.935 138.27C168.026 138.27 167.332 137.456 167.477 136.558L167.56 136.039C167.748 134.869 166.826 133.809 165.641 133.809C164.682 133.809 163.852 134.505 163.699 135.451L163.449 137.01C163.332 137.736 162.706 138.27 161.971 138.27C161.049 138.27 160.346 137.445 160.493 136.535L161.773 128.592C161.89 127.867 162.516 127.334 163.25 127.334C164.172 127.334 164.875 128.16 164.727 129.07L164.701 129.229C164.54 130.222 165.307 131.124 166.313 131.124H166.678C167.639 131.124 168.455 130.421 168.599 129.471L168.731 128.602C168.841 127.873 169.468 127.334 170.205 127.334C171.123 127.334 171.823 128.156 171.677 129.063L170.394 137.028C170.278 137.743 169.66 138.27 168.935 138.27ZM183.104 131.578L182.735 133.874C182.264 136.862 181.034 138.27 177.878 138.27H175.891C173.695 138.27 172.019 136.309 172.361 134.14L172.637 132.39C172.752 131.661 173.381 131.124 174.119 131.124C175.039 131.124 175.742 131.945 175.601 132.854L175.511 133.43C175.323 134.642 176.26 135.736 177.487 135.736H177.776C178.903 135.736 179.415 135.043 179.62 133.874L179.968 131.578C180.194 130.171 179.763 129.868 178.718 129.868H174.51C173.729 129.868 173.134 129.169 173.259 128.399C173.358 127.785 173.888 127.334 174.51 127.334H179.21C182.387 127.334 183.596 128.504 183.104 131.578Z" fill="white"/>
<g filter="url(#filter5_d_1627_4821)">
<path d="M286.675 27.3726C286.675 25.8471 286.675 24.3216 286.675 22.7783C286.656 22.4474 286.605 22.12 286.521 21.8027C286.256 20.5508 285.643 19.433 284.776 18.6196C283.908 17.8062 282.833 17.3417 281.715 17.2971C279.327 17.2971 277.093 17.1906 275.029 17.1906H254.171C253.039 17.1789 251.943 17.646 251.09 18.5033C250.534 18.9754 250.071 19.5788 249.734 20.2732C249.397 20.9677 249.192 21.7371 249.134 22.53C249.134 23.4701 249.134 24.428 249.134 25.3504C249.134 26.4182 248.268 27.2839 247.2 27.2839H243.187C242.081 27.2294 240.992 27.618 240.106 28.3837C239.497 28.8322 238.983 29.4339 238.604 30.1435C238.226 30.8532 237.991 31.6524 237.919 32.4813C237.919 33.3682 237.842 34.0955 237.842 34.7696C237.842 38.0512 237.842 41.4748 237.842 44.5081V44.6854C237.842 47.4349 237.842 50.1667 237.842 52.9161C237.837 53.8305 238.056 54.7279 238.473 55.506C238.91 56.4506 239.563 57.2395 240.361 57.7867C241.16 58.334 242.073 58.6188 243.002 58.6102H245.413C246.481 58.6102 247.347 59.4759 247.347 60.5437C247.347 62.7788 247.347 65.1025 247.347 67.3908C247.345 67.6577 247.416 67.9185 247.548 68.1376C247.573 68.1787 247.6 68.2179 247.628 68.2551C247.867 68.5661 248.249 68.7749 248.641 68.7922C248.778 68.7879 248.913 68.751 249.038 68.6838C249.163 68.6167 249.274 68.5207 249.365 68.4019L249.534 68.2245L249.765 67.9584L256.961 58.8863C257.031 58.797 257.086 58.6856 257.187 58.6336C257.283 58.5846 257.398 58.6102 257.506 58.6102H269.499C270.119 58.6226 270.738 58.5632 271.347 58.4328C272.335 58.1646 273.238 57.5815 273.952 56.7502C274.82 55.7386 276.663 55.3266 277.497 56.3665L278.942 58.1668C279.046 58.3148 279.178 58.4345 279.327 58.5173C279.476 58.6 279.639 58.6439 279.805 58.6457C279.993 58.6604 280.182 58.6302 280.359 58.557C280.598 58.4705 280.806 58.2943 280.948 58.0564C281.091 57.8185 281.16 57.5327 281.145 57.2443V49.1733C281.145 48.85 281.407 48.5879 281.73 48.5879C282.252 48.5352 282.768 48.4223 283.271 48.2509C284.291 47.8566 285.173 47.0921 285.784 46.0718C286.395 45.0516 286.702 43.8307 286.66 42.5923C286.675 37.5013 286.675 32.3571 286.675 27.3726ZM275.537 36.0113C275.537 34.8228 275.537 33.652 275.445 32.7651C275.396 31.7612 275.122 30.789 274.649 29.9434C274.177 29.0978 273.522 28.4077 272.749 27.9402C272.096 27.4821 271.342 27.2483 270.577 27.2662H252.462C251.875 27.2662 251.398 26.7896 251.398 26.2018C251.398 25.102 251.398 23.9668 251.398 22.867C251.392 22.2542 251.556 21.6551 251.866 21.1573C252.177 20.6594 252.617 20.2889 253.123 20.0998C253.375 20.0438 253.639 20.0998 253.897 20.0998H281.653C282.271 20.0816 282.873 20.3298 283.34 20.7957C283.807 21.2616 284.107 21.9118 284.18 22.6186C284.18 24.2329 284.18 25.9535 284.18 27.9402V35.6388C284.18 38.1222 284.18 40.6943 284.18 43.2663C284.147 43.6523 284.013 44.0176 283.794 44.3129C283.559 44.7426 283.231 45.0945 282.842 45.334C282.453 45.5735 282.017 45.6923 281.576 45.6788L280.359 45.7675H279.651C279.537 45.7721 279.426 45.8023 279.323 45.8565C279.22 45.9107 279.127 45.9878 279.049 46.0833C278.972 46.1789 278.912 46.2911 278.872 46.4134C278.833 46.5357 278.815 46.6659 278.819 46.7963V47.1156C278.819 47.8252 278.726 48.5702 278.711 49.3152V52.5063C278.711 52.8704 278.263 53.0437 278.018 52.7742L277.371 51.9937L275.697 49.8974C275.642 49.8291 275.594 49.7514 275.595 49.6641C275.596 49.5844 275.614 49.5055 275.613 49.4258C275.553 45.2524 275.553 40.597 275.537 36.0113ZM240.307 50.7698C240.307 44.7919 240.307 38.5834 240.307 32.5345C240.352 31.9998 240.572 31.505 240.923 31.1509C241.155 30.8454 241.442 30.6015 241.763 30.4361C242.085 30.2707 242.434 30.1878 242.787 30.193H270.562C270.72 30.1873 270.878 30.2031 271.031 30.2393C271.723 30.4028 272.31 30.936 272.626 31.5734C272.79 31.9046 272.88 32.2775 272.888 32.6587C272.888 34.2552 272.888 35.9758 272.888 37.6787C272.888 41.5634 272.888 45.4482 272.888 49.2088V51.8873C272.888 52.0824 272.888 52.2953 272.888 52.5081C272.896 52.6736 272.896 52.8394 272.888 53.0048C272.89 53.4994 272.773 53.9849 272.55 54.4075C272.327 54.8302 272.007 55.1736 271.625 55.3995C271.193 55.6778 270.702 55.8129 270.207 55.7898H256.636C256.435 55.7812 256.236 55.8246 256.052 55.9167C255.868 56.0088 255.704 56.1473 255.573 56.3219C254.109 58.0958 252.615 60.047 251.167 61.8386L250.865 62.2208C250.503 62.6793 249.765 62.4231 249.765 61.8386V61.6435C249.765 60.3486 249.765 59.0537 249.765 57.7588C249.765 57.6169 249.765 57.4572 249.765 57.3153C249.758 57.2091 249.758 57.1023 249.765 56.996C249.774 56.7336 249.693 56.4777 249.541 56.2824C249.389 56.0871 249.176 55.9677 248.949 55.9494C248.44 55.9494 247.855 55.8253 247.285 55.8075H242.756C242.206 55.7918 241.674 55.5781 241.234 55.1963C240.795 54.8145 240.471 54.2839 240.307 53.6789C240.289 53.5856 240.307 53.4892 240.307 53.3943V50.7698Z" fill="white"/>
<path d="M268.507 42.2945C268.411 42.0655 268.263 41.8706 268.079 41.7301C267.894 41.5897 267.681 41.5089 267.46 41.4962H246.617C246.396 41.4899 246.179 41.5546 245.988 41.6831C245.798 41.8116 245.642 41.9987 245.539 42.2235C245.433 42.4371 245.378 42.6785 245.378 42.9242C245.378 43.1698 245.433 43.4112 245.539 43.6249C245.643 43.8397 245.795 44.0187 245.979 44.1434C246.163 44.2681 246.373 44.334 246.586 44.3344H265.796C266.317 44.3344 266.826 44.3344 267.324 44.265C267.476 44.2438 267.63 44.228 267.783 44.228C267.911 44.2126 268.034 44.1668 268.146 44.0935C268.257 44.0202 268.354 43.921 268.43 43.8022C268.586 43.6081 268.682 43.3597 268.701 43.0963C268.721 42.8328 268.663 42.5694 268.538 42.3477L268.507 42.2945Z" fill="white"/>
<path d="M268.507 47.5782C268.411 47.3493 268.263 47.1543 268.079 47.0139C267.894 46.8735 267.681 46.7927 267.46 46.78H246.617C246.396 46.7737 246.179 46.8384 245.988 46.9669C245.798 47.0954 245.642 47.2825 245.539 47.5073C245.433 47.7209 245.378 47.9623 245.378 48.208C245.378 48.4536 245.433 48.695 245.539 48.9086C245.643 49.1234 245.795 49.3024 245.979 49.4271C246.163 49.5519 246.373 49.6178 246.586 49.6182H265.796C266.317 49.6182 266.826 49.6182 267.324 49.5488C267.476 49.5276 267.63 49.5117 267.783 49.5117C267.911 49.4964 268.034 49.4506 268.146 49.3773C268.257 49.304 268.354 49.2048 268.43 49.086C268.586 48.8919 268.682 48.6435 268.701 48.38C268.721 48.1166 268.663 47.8532 268.538 47.6315L268.507 47.5782Z" fill="white"/>
<path d="M246.649 39.2928H256.985C257.214 39.2933 257.439 39.2288 257.64 39.105C257.842 38.9812 258.014 38.802 258.141 38.5833C258.257 38.3806 258.318 38.1431 258.318 37.9004C258.318 37.6576 258.257 37.4202 258.141 37.2174C258.049 36.9942 257.906 36.8047 257.726 36.67C257.547 36.5353 257.338 36.4607 257.124 36.4547H246.618C246.392 36.451 246.17 36.5228 245.978 36.6613C245.787 36.7998 245.635 36.9991 245.539 37.2352C245.434 37.4422 245.378 37.678 245.378 37.9181C245.378 38.1582 245.434 38.394 245.539 38.601C245.646 38.8277 245.808 39.0138 246.005 39.1366C246.202 39.2594 246.425 39.3137 246.649 39.2928Z" fill="white"/>
</g>
<defs>
<filter id="filter0_d_1627_4821" x="0" y="0" width="295.779" height="302" filterUnits="userSpaceOnUse" color-interpolation-filters="sRGB">
<feFlood flood-opacity="0" result="BackgroundImageFix"/>
<feColorMatrix in="SourceAlpha" type="matrix" values="0 0 0 0 0 0 0 0 0 0 0 0 0 0 0 0 0 0 127 0" result="hardAlpha"/>
<feOffset dx="1" dy="-1"/>
<feGaussianBlur stdDeviation="1"/>
<feComposite in2="hardAlpha" operator="out"/>
<feColorMatrix type="matrix" values="0 0 0 0 0 0 0 0 0 0 0 0 0 0 0 0 0 0 0.3 0"/>
<feBlend mode="normal" in2="BackgroundImageFix" result="effect1_dropShadow_1627_4821"/>
<feBlend mode="normal" in="SourceGraphic" in2="effect1_dropShadow_1627_4821" result="shape"/>
</filter>
<filter id="filter1_d_1627_4821" x="80.5742" y="0.415039" width="216.426" height="270.624" filterUnits="userSpaceOnUse" color-interpolation-filters="sRGB">
<feFlood flood-opacity="0" result="BackgroundImageFix"/>
<feColorMatrix in="SourceAlpha" type="matrix" values="0 0 0 0 0 0 0 0 0 0 0 0 0 0 0 0 0 0 127 0" result="hardAlpha"/>
<feOffset dx="1" dy="-1"/>
<feGaussianBlur stdDeviation="1"/>
<feComposite in2="hardAlpha" operator="out"/>
<feColorMatrix type="matrix" values="0 0 0 0 0 0 0 0 0 0 0 0 0 0 0 0 0 0 0.3 0"/>
<feBlend mode="normal" in2="BackgroundImageFix" result="effect1_dropShadow_1627_4821"/>
<feBlend mode="normal" in="SourceGraphic" in2="effect1_dropShadow_1627_4821" result="shape"/>
</filter>
<filter id="filter2_d_1627_4821" x="105.68" y="50.7314" width="66.2617" height="40.1211" filterUnits="userSpaceOnUse" color-interpolation-filters="sRGB">
<feFlood flood-opacity="0" result="BackgroundImageFix"/>
<feColorMatrix in="SourceAlpha" type="matrix" values="0 0 0 0 0 0 0 0 0 0 0 0 0 0 0 0 0 0 127 0" result="hardAlpha"/>
<feOffset dy="2"/>
<feGaussianBlur stdDeviation="1"/>
<feComposite in2="hardAlpha" operator="out"/>
<feColorMatrix type="matrix" values="0 0 0 0 0 0 0 0 0 0 0 0 0 0 0 0 0 0 0.1 0"/>
<feBlend mode="normal" in2="BackgroundImageFix" result="effect1_dropShadow_1627_4821"/>
<feBlend mode="normal" in="SourceGraphic" in2="effect1_dropShadow_1627_4821" result="shape"/>
</filter>
<filter id="filter3_d_1627_4821" x="215.555" y="174.576" width="49.1699" height="82.6929" filterUnits="userSpaceOnUse" color-interpolation-filters="sRGB">
<feFlood flood-opacity="0" result="BackgroundImageFix"/>
<feColorMatrix in="SourceAlpha" type="matrix" values="0 0 0 0 0 0 0 0 0 0 0 0 0 0 0 0 0 0 127 0" result="hardAlpha"/>
<feOffset dy="2"/>
<feGaussianBlur stdDeviation="1"/>
<feComposite in2="hardAlpha" operator="out"/>
<feColorMatrix type="matrix" values="0 0 0 0 0 0 0 0 0 0 0 0 0 0 0 0 0 0 0.1 0"/>
<feBlend mode="normal" in2="BackgroundImageFix" result="effect1_dropShadow_1627_4821"/>
<feBlend mode="normal" in="SourceGraphic" in2="effect1_dropShadow_1627_4821" result="shape"/>
</filter>
<filter id="filter4_d_1627_4821" x="138.25" y="99.1499" width="85.0488" height="76.2612" filterUnits="userSpaceOnUse" color-interpolation-filters="sRGB">
<feFlood flood-opacity="0" result="BackgroundImageFix"/>
<feColorMatrix in="SourceAlpha" type="matrix" values="0 0 0 0 0 0 0 0 0 0 0 0 0 0 0 0 0 0 127 0" result="hardAlpha"/>
<feOffset dx="1" dy="-1"/>
<feGaussianBlur stdDeviation="1"/>
<feComposite in2="hardAlpha" operator="out"/>
<feColorMatrix type="matrix" values="0 0 0 0 0 0 0 0 0 0 0 0 0 0 0 0 0 0 0.3 0"/>
<feBlend mode="normal" in2="BackgroundImageFix" result="effect1_dropShadow_1627_4821"/>
<feBlend mode="normal" in="SourceGraphic" in2="effect1_dropShadow_1627_4821" result="shape"/>
</filter>
<filter id="filter5_d_1627_4821" x="235.842" y="17.1904" width="52.834" height="55.6016" filterUnits="userSpaceOnUse" color-interpolation-filters="sRGB">
<feFlood flood-opacity="0" result="BackgroundImageFix"/>
<feColorMatrix in="SourceAlpha" type="matrix" values="0 0 0 0 0 0 0 0 0 0 0 0 0 0 0 0 0 0 127 0" result="hardAlpha"/>
<feOffset dy="2"/>
<feGaussianBlur stdDeviation="1"/>
<feComposite in2="hardAlpha" operator="out"/>
<feColorMatrix type="matrix" values="0 0 0 0 0 0 0 0 0 0 0 0 0 0 0 0 0 0 0.1 0"/>
<feBlend mode="normal" in2="BackgroundImageFix" result="effect1_dropShadow_1627_4821"/>
<feBlend mode="normal" in="SourceGraphic" in2="effect1_dropShadow_1627_4821" result="shape"/>
</filter>
<linearGradient id="paint0_linear_1627_4821" x1="45.2589" y1="54.3369" x2="305.828" y2="225.121" gradientUnits="userSpaceOnUse">
<stop stop-color="#0671E0"/>
<stop offset="1" stop-color="#182045"/>
</linearGradient>
<linearGradient id="paint1_linear_1627_4821" x1="113.796" y1="49.0032" x2="325.082" y2="161.512" gradientUnits="userSpaceOnUse">
<stop stop-color="#0671E0"/>
<stop offset="1" stop-color="#2B4DFE"/>
</linearGradient>
<linearGradient id="paint2_linear_1627_4821" x1="194.265" y1="92.8568" x2="243.266" y2="116.614" gradientUnits="userSpaceOnUse">
<stop stop-color="#182045"/>
<stop offset="1" stop-color="#0671E0"/>
</linearGradient>
<linearGradient id="paint3_linear_1627_4821" x1="125.5" y1="102" x2="218.315" y2="162.849" gradientUnits="userSpaceOnUse">
<stop stop-color="#182045"/>
<stop offset="1" stop-color="#0671E0"/>
</linearGradient>
</defs>
</svg>
