<svg width="46" height="46" viewBox="0 0 46 46" fill="none" xmlns="http://www.w3.org/2000/svg">
<rect width="46" height="46.0002" transform="translate(-0.00341797)" fill="#252B46"/>
<path d="M31.9921 32.0002V31.9994H31.9966V25.3979C31.9966 22.1684 31.3013 19.6807 27.5258 19.6807C25.7108 19.6807 24.4928 20.6767 23.9955 21.6209H23.943V19.9822H20.3633V31.9994H24.0908V26.0489C24.0908 24.4822 24.3878 22.9672 26.328 22.9672C28.2398 22.9672 28.2683 24.7552 28.2683 26.1494V32.0002H31.9921Z" fill="white"/>
<path d="M14.2935 19.9824H18.0255V31.9997H14.2935V19.9824Z" fill="white"/>
<path d="M16.1581 14C14.9648 14 13.9966 14.9683 13.9966 16.1615C13.9966 17.3548 14.9648 18.3433 16.1581 18.3433C17.3513 18.3433 18.3196 17.3548 18.3196 16.1615C18.3188 14.9683 17.3506 14 16.1581 14V14Z" fill="white"/>
</svg>
