<svg width="38" height="38" viewBox="0 0 38 38" fill="none" xmlns="http://www.w3.org/2000/svg">
<circle cx="19" cy="19" r="19" fill="#C1C1C1"/>
<path opacity="0.16" d="M23.5109 27.1507H14.5109C14.0335 27.1507 13.5757 26.9716 13.2381 26.6528C12.9006 26.334 12.7109 25.9016 12.7109 25.4507V17.8006L19.0109 11.8506L25.3109 17.8006V25.4507C25.3109 25.9016 25.1213 26.334 24.7837 26.6528C24.4462 26.9716 23.9883 27.1507 23.5109 27.1507Z" fill="white"/>
<path d="M26.2111 17.7999C26.2111 17.5745 26.1162 17.3583 25.9475 17.1988C25.7787 17.0394 25.5498 16.9499 25.3111 16.9499C25.0724 16.9499 24.8434 17.0394 24.6747 17.1988C24.5059 17.3583 24.4111 17.5745 24.4111 17.7999H26.2111ZM13.6111 17.7999C13.6111 17.5745 13.5162 17.3583 13.3475 17.1988C13.1787 17.0394 12.9498 16.9499 12.7111 16.9499C12.4724 16.9499 12.2434 17.0394 12.0747 17.1988C11.9059 17.3583 11.8111 17.5745 11.8111 17.7999H13.6111ZM26.4748 20.1009C26.6445 20.2557 26.8718 20.3414 27.1078 20.3394C27.3438 20.3375 27.5695 20.2481 27.7364 20.0905C27.9033 19.9329 27.9979 19.7197 28 19.4969C28.002 19.274 27.9113 19.0593 27.7474 18.899L26.4748 20.1009ZM19.0111 11.8498L19.6474 11.2489C19.4786 11.0895 19.2497 11 19.0111 11C18.7724 11 18.5435 11.0895 18.3748 11.2489L19.0111 11.8498ZM10.2748 18.899C10.1888 18.9774 10.1202 19.0712 10.0731 19.1749C10.0259 19.2786 10.0011 19.3901 10 19.503C9.999 19.6158 10.0218 19.7278 10.067 19.8322C10.1123 19.9367 10.1791 20.0316 10.2636 20.1114C10.3481 20.1912 10.4486 20.2543 10.5592 20.2971C10.6698 20.3398 10.7883 20.3613 10.9078 20.3603C11.0273 20.3594 11.1454 20.3359 11.2552 20.2914C11.365 20.2468 11.4643 20.182 11.5474 20.1009L10.2748 18.899ZM14.5111 28H23.5111V26.3H14.5111V28ZM26.2111 25.45V17.7999H24.4111V25.45H26.2111ZM13.6111 25.45V17.7999H11.8111V25.45H13.6111ZM27.7474 18.899L19.6474 11.2489L18.3748 12.4508L26.4748 20.1009L27.7474 18.899ZM18.3748 11.2489L10.2748 18.899L11.5474 20.1009L19.6474 12.4508L18.3748 11.2489ZM23.5111 28C24.2271 28 24.9139 27.7313 25.4202 27.2531C25.9266 26.7749 26.2111 26.1263 26.2111 25.45H24.4111C24.4111 25.6754 24.3162 25.8916 24.1475 26.051C23.9787 26.2104 23.7498 26.3 23.5111 26.3V28ZM14.5111 26.3C14.2724 26.3 14.0434 26.2104 13.8747 26.051C13.7059 25.8916 13.6111 25.6754 13.6111 25.45H11.8111C11.8111 26.1263 12.0955 26.7749 12.6019 27.2531C13.1082 27.7313 13.795 28 14.5111 28V26.3Z" fill="white"/>
</svg>
