<svg width="11" height="10" viewBox="0 0 11 10" fill="none" xmlns="http://www.w3.org/2000/svg">
<path fill-rule="evenodd" clip-rule="evenodd" d="M11 5C11 7.7615 8.53765 10 5.5 10C2.46235 10 0 7.7615 0 5C0 2.2385 2.46235 0 5.5 0C8.53765 0 11 2.2385 11 5ZM3.36105 6.9445C3.3095 6.89762 3.28053 6.83404 3.28053 6.76775C3.28053 6.70146 3.3095 6.63788 3.36105 6.591L5.11115 5L3.36105 3.409C3.31096 3.36185 3.28324 3.2987 3.28386 3.23315C3.28449 3.1676 3.31341 3.1049 3.3644 3.05855C3.41539 3.01219 3.48436 2.9859 3.55646 2.98533C3.62857 2.98476 3.69803 3.00996 3.7499 3.0555L5.5 4.6465L7.2501 3.0555C7.30197 3.00996 7.37143 2.98476 7.44354 2.98533C7.51564 2.9859 7.58461 3.01219 7.6356 3.05855C7.68659 3.1049 7.71551 3.1676 7.71614 3.23315C7.71676 3.2987 7.68904 3.36185 7.63895 3.409L5.88885 5L7.63895 6.591C7.68904 6.63815 7.71676 6.7013 7.71614 6.76685C7.71551 6.8324 7.68659 6.8951 7.6356 6.94145C7.58461 6.98781 7.51564 7.0141 7.44354 7.01467C7.37143 7.01524 7.30197 6.99004 7.2501 6.9445L5.5 5.3535L3.7499 6.9445C3.69833 6.99137 3.6284 7.0177 3.55548 7.0177C3.48256 7.0177 3.41262 6.99137 3.36105 6.9445Z" fill="#FF0000"/>
</svg>
