<svg width="21" height="20" viewBox="0 0 21 20" fill="none" xmlns="http://www.w3.org/2000/svg">
<circle cx="10.5" cy="10" r="10" fill="#1B2A6C"/>
<path d="M7.49579 12.276L10.9038 8.892C11.0238 8.78 11.1398 8.66 11.2518 8.532C11.3638 8.396 11.4638 8.256 11.5518 8.112C11.6398 7.968 11.7078 7.816 11.7558 7.656C11.8118 7.496 11.8398 7.328 11.8398 7.152C11.8398 6.944 11.7998 6.756 11.7198 6.588C11.6478 6.42 11.5438 6.28 11.4078 6.168C11.2798 6.048 11.1238 5.956 10.9398 5.892C10.7638 5.828 10.5758 5.796 10.3758 5.796C9.95979 5.796 9.61579 5.912 9.34379 6.144C9.07179 6.376 8.89979 6.696 8.82779 7.104L7.57979 6.996C7.63579 6.62 7.74379 6.296 7.90379 6.024C8.07179 5.744 8.27579 5.512 8.51579 5.328C8.76379 5.144 9.04379 5.008 9.35579 4.92C9.67579 4.832 10.0198 4.788 10.3878 4.788C10.7558 4.788 11.0998 4.84 11.4198 4.944C11.7478 5.04 12.0318 5.188 12.2718 5.388C12.5198 5.58 12.7118 5.824 12.8478 6.12C12.9918 6.408 13.0638 6.748 13.0638 7.14C13.0638 7.42 13.0198 7.684 12.9318 7.932C12.8518 8.172 12.7438 8.4 12.6078 8.616C12.4718 8.832 12.3158 9.036 12.1398 9.228C11.9638 9.42 11.7798 9.608 11.5878 9.792L8.79179 12.492H13.0638V13.5H7.49579V12.276Z" fill="white"/>
</svg>
