<svg width="21" height="20" viewBox="0 0 21 20" fill="none" xmlns="http://www.w3.org/2000/svg">
<circle cx="10.5" cy="10" r="10" fill="#333333"/>
<path d="M8.70779 11.424C8.84379 11.832 9.02379 12.136 9.24779 12.336C9.47979 12.536 9.81979 12.636 10.2678 12.636C10.4918 12.636 10.6998 12.6 10.8918 12.528C11.0918 12.448 11.2678 12.344 11.4198 12.216C11.5718 12.08 11.6918 11.92 11.7798 11.736C11.8678 11.544 11.9118 11.332 11.9118 11.1C11.9118 10.748 11.8358 10.468 11.6838 10.26C11.5398 10.044 11.3518 9.884 11.1198 9.78C10.8878 9.668 10.6318 9.596 10.3518 9.564C10.0718 9.532 9.79579 9.516 9.52379 9.516V8.508C9.96379 8.508 10.3238 8.48 10.6038 8.424C10.8838 8.36 11.1038 8.272 11.2638 8.16C11.4238 8.048 11.5358 7.908 11.5998 7.74C11.6638 7.572 11.6958 7.384 11.6958 7.176C11.6958 6.72 11.5598 6.376 11.2878 6.144C11.0158 5.912 10.6758 5.796 10.2678 5.796C9.95579 5.796 9.67179 5.888 9.41579 6.072C9.16779 6.248 8.97979 6.484 8.85179 6.78L7.67579 6.384C7.89979 5.84 8.23979 5.44 8.69579 5.184C9.15979 4.92 9.67579 4.788 10.2438 4.788C10.5878 4.788 10.9158 4.836 11.2278 4.932C11.5478 5.02 11.8278 5.16 12.0678 5.352C12.3078 5.544 12.4958 5.788 12.6318 6.084C12.7758 6.372 12.8478 6.712 12.8478 7.104C12.8478 7.552 12.7118 7.952 12.4398 8.304C12.1758 8.656 11.8278 8.896 11.3958 9.024V9.048C11.6598 9.096 11.8958 9.184 12.1038 9.312C12.3118 9.44 12.4878 9.6 12.6318 9.792C12.7758 9.984 12.8838 10.2 12.9558 10.44C13.0278 10.672 13.0638 10.92 13.0638 11.184C13.0638 11.592 12.9838 11.952 12.8238 12.264C12.6718 12.568 12.4638 12.824 12.1998 13.032C11.9438 13.232 11.6438 13.384 11.2998 13.488C10.9638 13.592 10.6078 13.644 10.2318 13.644C9.58379 13.644 9.01179 13.496 8.51579 13.2C8.02779 12.904 7.68779 12.436 7.49579 11.796L8.70779 11.424Z" fill="white"/>
</svg>
