<svg width="25" height="25" viewBox="0 0 25 25" fill="none" xmlns="http://www.w3.org/2000/svg">
<circle cx="12.5" cy="12.5" r="12.5" fill="#182045"/>
<path d="M13 6C13.7956 6 14.5587 6.31607 15.1213 6.87868C15.6839 7.44129 16 8.20435 16 9C16 9.79565 15.6839 10.5587 15.1213 11.1213C14.5587 11.6839 13.7956 12 13 12C12.2044 12 11.4413 11.6839 10.8787 11.1213C10.3161 10.5587 10 9.79565 10 9C10 8.20435 10.3161 7.44129 10.8787 6.87868C11.4413 6.31607 12.2044 6 13 6ZM13 13.5C16.315 13.5 19 14.8425 19 16.5V18H7V16.5C7 14.8425 9.685 13.5 13 13.5Z" fill="white"/>
</svg>
