<svg width="20" height="20" viewBox="0 0 20 20" fill="none" xmlns="http://www.w3.org/2000/svg">
<path d="M14.168 5.83301H10.8346V7.49967H14.168C15.543 7.49967 16.668 8.62467 16.668 9.99967C16.668 11.3747 15.543 12.4997 14.168 12.4997H10.8346V14.1663H14.168C16.468 14.1663 18.3346 12.2997 18.3346 9.99967C18.3346 7.69967 16.468 5.83301 14.168 5.83301ZM9.16797 12.4997H5.83464C4.45964 12.4997 3.33464 11.3747 3.33464 9.99967C3.33464 8.62467 4.45964 7.49967 5.83464 7.49967H9.16797V5.83301H5.83464C3.53464 5.83301 1.66797 7.69967 1.66797 9.99967C1.66797 12.2997 3.53464 14.1663 5.83464 14.1663H9.16797V12.4997ZM6.66797 9.16634H13.3346V10.833H6.66797V9.16634Z" fill="#696969"/>
</svg>
