<svg width="38" height="38" viewBox="0 0 38 38" fill="none" xmlns="http://www.w3.org/2000/svg">
<circle cx="19" cy="19" r="19" fill="#C1C1C1"/>
<path fill-rule="evenodd" clip-rule="evenodd" d="M25.7601 18.9997C25.7601 19.3113 25.7312 19.6047 25.6928 19.898L27.7226 21.4105C27.9053 21.548 27.9535 21.7955 27.838 21.9972L25.914 25.1688C25.8274 25.3155 25.6639 25.398 25.5004 25.398C25.4426 25.398 25.3849 25.3888 25.3272 25.3705L22.9318 24.4538C22.4316 24.8113 21.8929 25.123 21.3061 25.3522L20.9405 27.7813C20.9116 28.0013 20.7096 28.1663 20.4691 28.1663H16.6211C16.3806 28.1663 16.1786 28.0013 16.1498 27.7813L15.7842 25.3522C15.1974 25.123 14.6587 24.8205 14.1584 24.4538L11.7631 25.3705C11.715 25.3888 11.6572 25.398 11.5995 25.398C11.4264 25.398 11.2628 25.3155 11.1762 25.1688L9.25224 21.9972C9.1368 21.7955 9.1849 21.548 9.36768 21.4105L11.3975 19.898C11.359 19.6047 11.3302 19.3022 11.3302 18.9997C11.3302 18.6972 11.359 18.3947 11.3975 18.1013L9.36768 16.5888C9.1849 16.4513 9.12718 16.2038 9.25224 16.0022L11.1762 12.8305C11.2628 12.6838 11.4264 12.6013 11.5899 12.6013C11.6476 12.6013 11.7053 12.6105 11.7631 12.6288L14.1584 13.5455C14.6587 13.188 15.1974 12.8763 15.7842 12.6472L16.1498 10.218C16.1786 9.99801 16.3806 9.83301 16.6211 9.83301H20.4691C20.7096 9.83301 20.9116 9.99801 20.9405 10.218L21.3061 12.6472C21.8929 12.8763 22.4316 13.1788 22.9318 13.5455L25.3272 12.6288C25.3753 12.6105 25.433 12.6013 25.4907 12.6013C25.6639 12.6013 25.8274 12.6838 25.914 12.8305L27.838 16.0022C27.9535 16.2038 27.9053 16.4513 27.7226 16.5888L25.6928 18.1013C25.7312 18.3947 25.7601 18.688 25.7601 18.9997ZM23.8361 18.9997C23.8361 18.8072 23.8265 18.6147 23.788 18.3305L23.6533 17.2947L24.5095 16.653L25.5388 15.8738L24.8654 14.7647L23.6437 15.2322L22.624 15.6263L21.7486 14.9847C21.3638 14.7097 20.979 14.4988 20.5653 14.3338L19.5456 13.9397L19.3917 12.9038L19.2089 11.6663H17.8717L17.6793 12.9038L17.5254 13.9397L16.5057 14.3338C16.1113 14.4897 15.7169 14.7097 15.3032 15.003L14.4374 15.6263L13.4369 15.2413L12.2152 14.7738L11.5418 15.883L12.5808 16.653L13.4369 17.2947L13.3022 18.3305C13.2734 18.6055 13.2541 18.8163 13.2541 18.9997C13.2541 19.183 13.2734 19.3938 13.3022 19.678L13.4369 20.7138L12.5808 21.3555L11.5418 22.1255L12.2152 23.2347L13.4369 22.7672L14.4566 22.373L15.3321 23.0147C15.7169 23.2897 16.1017 23.5005 16.5153 23.6655L17.535 24.0597L17.689 25.0955L17.8717 26.333H19.2185L19.4109 25.0955L19.5648 24.0597L20.5846 23.6655C20.979 23.5097 21.3734 23.2897 21.7871 22.9963L22.6529 22.373L23.6533 22.758L24.8751 23.2255L25.5485 22.1163L24.5095 21.3463L23.6533 20.7047L23.788 19.6688C23.8169 19.3938 23.8361 19.1922 23.8361 18.9997ZM18.5451 15.333C16.4191 15.333 14.6971 16.9738 14.6971 18.9997C14.6971 21.0255 16.4191 22.6663 18.5451 22.6663C20.6711 22.6663 22.3931 21.0255 22.3931 18.9997C22.3931 16.9738 20.6711 15.333 18.5451 15.333ZM16.6211 18.9997C16.6211 20.008 17.4869 20.833 18.5451 20.833C19.6033 20.833 20.4691 20.008 20.4691 18.9997C20.4691 17.9913 19.6033 17.1663 18.5451 17.1663C17.4869 17.1663 16.6211 17.9913 16.6211 18.9997Z" fill="white"/>
</svg>
