<svg width="80" height="16" viewBox="0 0 80 16" fill="none" xmlns="http://www.w3.org/2000/svg">
<path d="M7.36596 2.46066C7.56553 1.84645 8.43447 1.84645 8.63404 2.46065L9.64643 5.5765C9.73568 5.85118 9.99165 6.03715 10.2805 6.03715H13.5567C14.2025 6.03715 14.471 6.86356 13.9485 7.24316L11.298 9.16886C11.0644 9.33862 10.9666 9.63953 11.0558 9.91422L12.0682 13.0301C12.2678 13.6443 11.5648 14.155 11.0423 13.7754L8.39186 11.8497C8.1582 11.68 7.8418 11.68 7.60814 11.8497L4.95765 13.7754C4.43517 14.155 3.73219 13.6443 3.93175 13.0301L4.94415 9.91422C5.0334 9.63953 4.93563 9.33862 4.70197 9.16886L2.05148 7.24316C1.529 6.86356 1.79752 6.03715 2.44334 6.03715H5.71952C6.00834 6.03715 6.26431 5.85118 6.35356 5.5765L7.36596 2.46066Z" fill="#F79B12"/>
<path d="M23.366 2.46066C23.5655 1.84645 24.4345 1.84645 24.634 2.46065L25.6464 5.5765C25.7357 5.85118 25.9917 6.03715 26.2805 6.03715H29.5567C30.2025 6.03715 30.471 6.86356 29.9485 7.24316L27.298 9.16886C27.0644 9.33862 26.9666 9.63953 27.0558 9.91422L28.0682 13.0301C28.2678 13.6443 27.5648 14.155 27.0423 13.7754L24.3919 11.8497C24.1582 11.68 23.8418 11.68 23.6081 11.8497L20.9576 13.7754C20.4352 14.155 19.7322 13.6443 19.9318 13.0301L20.9442 9.91422C21.0334 9.63953 20.9356 9.33862 20.702 9.16886L18.0515 7.24316C17.529 6.86356 17.7975 6.03715 18.4433 6.03715H21.7195C22.0083 6.03715 22.2643 5.85118 22.3536 5.5765L23.366 2.46066Z" fill="#F69B12"/>
<path d="M39.366 2.46066C39.5655 1.84645 40.4345 1.84645 40.634 2.46065L41.6464 5.5765C41.7357 5.85118 41.9917 6.03715 42.2805 6.03715H45.5567C46.2025 6.03715 46.471 6.86356 45.9485 7.24316L43.298 9.16886C43.0644 9.33862 42.9666 9.63953 43.0558 9.91422L44.0682 13.0301C44.2678 13.6443 43.5648 14.155 43.0423 13.7754L40.3919 11.8497C40.1582 11.68 39.8418 11.68 39.6081 11.8497L36.9576 13.7754C36.4352 14.155 35.7322 13.6443 35.9318 13.0301L36.9442 9.91422C37.0334 9.63953 36.9356 9.33862 36.702 9.16886L34.0515 7.24316C33.529 6.86356 33.7975 6.03715 34.4433 6.03715H37.7195C38.0083 6.03715 38.2643 5.85118 38.3536 5.5765L39.366 2.46066Z" fill="#F69B12"/>
<path d="M55.366 2.46066C55.5655 1.84645 56.4345 1.84645 56.634 2.46065L57.6464 5.5765C57.7357 5.85118 57.9917 6.03715 58.2805 6.03715H61.5567C62.2025 6.03715 62.471 6.86356 61.9485 7.24316L59.298 9.16886C59.0644 9.33862 58.9666 9.63953 59.0558 9.91422L60.0682 13.0301C60.2678 13.6443 59.5648 14.155 59.0423 13.7754L56.3919 11.8497C56.1582 11.68 55.8418 11.68 55.6081 11.8497L52.9576 13.7754C52.4352 14.155 51.7322 13.6443 51.9318 13.0301L52.9442 9.91422C53.0334 9.63953 52.9356 9.33862 52.702 9.16886L50.0515 7.24316C49.529 6.86356 49.7975 6.03715 50.4433 6.03715H53.7195C54.0083 6.03715 54.2643 5.85118 54.3536 5.5765L55.366 2.46066Z" fill="#F69B12"/>
<path d="M71.366 2.46066C71.5655 1.84645 72.4345 1.84645 72.634 2.46065L73.6464 5.5765C73.7357 5.85118 73.9917 6.03715 74.2805 6.03715H77.5567C78.2025 6.03715 78.471 6.86356 77.9485 7.24316L75.298 9.16886C75.0644 9.33862 74.9666 9.63953 75.0558 9.91422L76.0682 13.0301C76.2678 13.6443 75.5648 14.155 75.0423 13.7754L72.3919 11.8497C72.1582 11.68 71.8418 11.68 71.6081 11.8497L68.9576 13.7754C68.4352 14.155 67.7322 13.6443 67.9318 13.0301L68.9442 9.91422C69.0334 9.63953 68.9356 9.33862 68.702 9.16886L66.0515 7.24316C65.529 6.86356 65.7975 6.03715 66.4433 6.03715H69.7195C70.0083 6.03715 70.2643 5.85118 70.3536 5.5765L71.366 2.46066Z" fill="#F69B12"/>
</svg>
