<svg width="21" height="20" viewBox="0 0 21 20" fill="none" xmlns="http://www.w3.org/2000/svg">
<path d="M11.0829 14.901L15.0232 17.3974C15.5268 17.7165 16.1522 17.2419 16.0027 16.654L14.8643 12.1756C14.8322 12.0509 14.836 11.9197 14.8752 11.797C14.9145 11.6743 14.9875 11.5652 15.086 11.4822L18.6194 8.54132C19.0836 8.1549 18.844 7.38439 18.2475 7.34567L13.6331 7.0462C13.5088 7.03732 13.3896 6.99332 13.2894 6.91931C13.1891 6.84531 13.112 6.74435 13.0669 6.62819L11.3459 2.29436C11.2991 2.17106 11.216 2.06492 11.1074 1.99002C10.9989 1.91511 10.8702 1.875 10.7383 1.875C10.6064 1.875 10.4777 1.91511 10.3691 1.99002C10.2606 2.06492 10.1774 2.17106 10.1306 2.29436L8.40968 6.62819C8.36459 6.74435 8.28743 6.84531 8.18718 6.91931C8.08693 6.99332 7.96772 7.03732 7.84343 7.0462L3.22906 7.34567C2.63258 7.38439 2.39295 8.1549 2.85722 8.54132L6.3906 11.4822C6.48907 11.5652 6.56211 11.6743 6.60133 11.797C6.64055 11.9197 6.64434 12.0509 6.61228 12.1756L5.55652 16.3288C5.37717 17.0343 6.12757 17.6038 6.73197 17.2209L10.3937 14.901C10.4967 14.8354 10.6162 14.8006 10.7383 14.8006C10.8604 14.8006 10.9799 14.8354 11.0829 14.901Z" fill="#FD8E1F"/>
</svg>
