<svg width="59" height="61" viewBox="0 0 59 61" fill="none" xmlns="http://www.w3.org/2000/svg">
<path d="M13.3351 28.463C15.564 28.463 17.3762 26.8136 17.3762 24.7849C17.3762 22.7562 15.564 21.1068 13.3351 21.1068C11.1062 21.1068 9.29399 22.7562 9.29399 24.7849C9.29399 26.8136 11.1062 28.463 13.3351 28.463ZM41.6227 28.463C43.8517 28.463 45.6638 26.8136 45.6638 24.7849C45.6638 22.7562 43.8517 21.1068 41.6227 21.1068C39.3938 21.1068 37.5817 22.7562 37.5817 24.7849C37.5817 26.8136 39.3938 28.463 41.6227 28.463ZM43.6433 30.3021H39.6022C38.4909 30.3021 37.4869 30.7101 36.7545 31.371C39.2991 32.6411 41.105 34.9342 41.4965 37.6583H45.6638C46.7815 37.6583 47.6844 36.8365 47.6844 35.8193V33.9802C47.6844 31.9515 45.8722 30.3021 43.6433 30.3021ZM27.4789 30.3021C31.3874 30.3021 34.5508 27.4228 34.5508 23.8654C34.5508 20.308 31.3874 17.4287 27.4789 17.4287C23.5704 17.4287 20.407 20.308 20.407 23.8654C20.407 27.4228 23.5704 30.3021 27.4789 30.3021ZM32.3282 32.1411H31.8042C30.4908 32.7158 29.0322 33.0607 27.4789 33.0607C25.9256 33.0607 24.4734 32.7158 23.1537 32.1411H22.6296C18.6138 32.1411 15.3556 35.1066 15.3556 38.7617V40.4169C15.3556 41.9398 16.7132 43.1755 18.3865 43.1755H36.5714C38.2446 43.1755 39.6022 41.9398 39.6022 40.4169V38.7617C39.6022 35.1066 36.3441 32.1411 32.3282 32.1411ZM18.2033 31.371C17.4709 30.7101 16.4669 30.3021 15.3556 30.3021H11.3145C9.08562 30.3021 7.27344 31.9515 7.27344 33.9802V35.8193C7.27344 36.8365 8.17637 37.6583 9.29399 37.6583H13.4551C13.8528 34.9342 15.6587 32.6411 18.2033 31.371Z" fill="#00CBB8"/>
</svg>
