<svg width="85" height="78" viewBox="0 0 85 78" fill="none" xmlns="http://www.w3.org/2000/svg">
<rect width="85" height="78" rx="4" fill="#B3F0EA"/>
<path d="M25.3356 36.463C27.5645 36.463 29.3767 34.8136 29.3767 32.7849C29.3767 30.7562 27.5645 29.1068 25.3356 29.1068C23.1067 29.1068 21.2945 30.7562 21.2945 32.7849C21.2945 34.8136 23.1067 36.463 25.3356 36.463ZM53.6232 36.463C55.8522 36.463 57.6643 34.8136 57.6643 32.7849C57.6643 30.7562 55.8522 29.1068 53.6232 29.1068C51.3943 29.1068 49.5821 30.7562 49.5821 32.7849C49.5821 34.8136 51.3943 36.463 53.6232 36.463ZM55.6438 38.3021H51.6027C50.4914 38.3021 49.4874 38.7101 48.755 39.371C51.2996 40.6411 53.1055 42.9342 53.497 45.6583H57.6643C58.782 45.6583 59.6849 44.8365 59.6849 43.8193V41.9802C59.6849 39.9515 57.8727 38.3021 55.6438 38.3021ZM39.4794 38.3021C43.3879 38.3021 46.5513 35.4228 46.5513 31.8654C46.5513 28.308 43.3879 25.4287 39.4794 25.4287C35.5709 25.4287 32.4075 28.308 32.4075 31.8654C32.4075 35.4228 35.5709 38.3021 39.4794 38.3021ZM44.3287 40.1411H43.8046C42.4913 40.7158 41.0327 41.0607 39.4794 41.0607C37.9261 41.0607 36.4738 40.7158 35.1542 40.1411H34.6301C30.6143 40.1411 27.3561 43.1066 27.3561 46.7617V48.4169C27.3561 49.9398 28.7137 51.1755 30.3869 51.1755H48.5719C50.2451 51.1755 51.6027 49.9398 51.6027 48.4169V46.7617C51.6027 43.1066 48.3446 40.1411 44.3287 40.1411ZM30.2038 39.371C29.4714 38.7101 28.4674 38.3021 27.3561 38.3021H23.315C21.0861 38.3021 19.2739 39.9515 19.2739 41.9802V43.8193C19.2739 44.8365 20.1769 45.6583 21.2945 45.6583H25.4555C25.8533 42.9342 27.6592 40.6411 30.2038 39.371Z" fill="#00CBB8"/>
</svg>
