<svg width="85" height="78" viewBox="0 0 85 78" fill="none" xmlns="http://www.w3.org/2000/svg">
<rect width="85" height="78" rx="4" fill="#C9EBEC"/>
<path d="M55.25 42.8438C55.25 43.3125 55.0156 43.7227 54.7227 43.957C54.4297 44.8359 54.4297 47.4141 54.7227 48.3516C55.0156 48.5859 55.25 48.9961 55.25 49.4062V50.3438C55.25 51.1641 54.6055 51.75 53.8438 51.75H34.625C31.5195 51.75 29 49.2305 29 46.125V27.375C29 24.2695 31.5195 21.75 34.625 21.75H53.8438C54.6055 21.75 55.25 22.3945 55.25 23.1562V42.8438ZM36.5 29.6016V30.7734C36.5 31.0078 36.6172 31.125 36.8516 31.125H49.2734C49.4492 31.125 49.625 31.0078 49.625 30.7734V29.6016C49.625 29.4258 49.4492 29.25 49.2734 29.25H36.8516C36.6172 29.25 36.5 29.4258 36.5 29.6016ZM36.5 33.3516V34.5234C36.5 34.7578 36.6172 34.875 36.8516 34.875H49.2734C49.4492 34.875 49.625 34.7578 49.625 34.5234V33.3516C49.625 33.1758 49.4492 33 49.2734 33H36.8516C36.6172 33 36.5 33.1758 36.5 33.3516ZM51.3242 48C51.207 47.0039 51.207 45.3047 51.3242 44.25H34.625C33.5703 44.25 32.75 45.1289 32.75 46.125C32.75 47.1797 33.5703 48 34.625 48H51.3242Z" fill="#49BBBD"/>
</svg>
