<svg width="20" height="20" viewBox="0 0 20 20" fill="none" xmlns="http://www.w3.org/2000/svg">
<path fill-rule="evenodd" clip-rule="evenodd" d="M5.95501 5.80486C5.31734 6.4333 4.82999 7.19775 4.52937 8.04107C4.22875 8.88439 4.12266 9.78476 4.21901 10.6749C4.24686 10.9387 4.16874 11.2029 4.00183 11.4092C3.83492 11.6155 3.5929 11.747 3.32901 11.7749C3.06512 11.8027 2.80098 11.7246 2.59469 11.5577C2.3884 11.3908 2.25686 11.1487 2.22901 10.8849C2.10129 9.69587 2.24378 8.49339 2.64585 7.36718C3.04792 6.24098 3.69918 5.22013 4.55101 4.38086C7.68701 1.28886 12.741 1.34086 15.84 4.48286C18.94 7.62586 18.921 12.6809 15.786 15.7729C14.3346 17.2068 12.386 18.0256 10.346 18.0589C9.57503 18.0724 8.80612 17.9748 8.06301 17.7689C7.93352 17.7366 7.8118 17.6787 7.70503 17.5986C7.59826 17.5185 7.5086 17.4179 7.44134 17.3026C7.37407 17.1873 7.33056 17.0598 7.31336 16.9274C7.29616 16.7951 7.30564 16.6606 7.34121 16.532C7.37679 16.4034 7.43776 16.2832 7.52052 16.1785C7.60328 16.0738 7.70617 15.9867 7.82311 15.9224C7.94005 15.8581 8.06868 15.8178 8.20142 15.804C8.33416 15.7901 8.46833 15.803 8.59601 15.8419C9.15388 15.9965 9.7312 16.0696 10.31 16.0589C11.8367 16.0348 13.2951 15.4222 14.381 14.3489C16.724 12.0389 16.746 8.24986 14.416 5.88786C12.086 3.52486 8.29701 3.49486 5.95501 5.80486Z" fill="#282B89"/>
<path fill-rule="evenodd" clip-rule="evenodd" d="M3.96712 11.6951C3.8798 11.7932 3.77401 11.8732 3.65578 11.9304C3.53756 11.9876 3.40922 12.021 3.2781 12.0286C3.14698 12.0362 3.01565 12.0179 2.8916 11.9748C2.76754 11.9316 2.65321 11.8645 2.55512 11.7771L0.835119 10.2471C0.637002 10.0707 0.517062 9.8229 0.501684 9.5581C0.486306 9.2933 0.57675 9.03324 0.753119 8.83512C0.929488 8.637 1.17733 8.51706 1.44214 8.50168C1.70694 8.48631 1.967 8.57675 2.16512 8.75312L3.88512 10.2831C3.98323 10.3704 4.06318 10.4762 4.1204 10.5945C4.17762 10.7127 4.21099 10.841 4.2186 10.9721C4.22622 11.1033 4.20793 11.2346 4.16478 11.3586C4.12163 11.4827 4.05446 11.597 3.96712 11.6951Z" fill="#282B89"/>
<path fill-rule="evenodd" clip-rule="evenodd" d="M2.4207 11.6C2.4995 11.7051 2.59821 11.7936 2.71121 11.8605C2.82421 11.9274 2.94928 11.9714 3.07928 11.9899C3.20928 12.0085 3.34167 12.0013 3.46888 11.9687C3.5961 11.9361 3.71565 11.8788 3.8207 11.8L5.8207 10.3C6.03288 10.1409 6.17315 9.90397 6.21065 9.64142C6.24816 9.37887 6.17983 9.11217 6.0207 8.9C5.86157 8.68783 5.62468 8.54756 5.36212 8.51005C5.09957 8.47254 4.83288 8.54087 4.6207 8.7L2.6207 10.2C2.51565 10.2788 2.42714 10.3775 2.36023 10.4905C2.29332 10.6035 2.24933 10.7286 2.23075 10.8586C2.21218 10.9886 2.2194 11.121 2.25199 11.2482C2.28458 11.3754 2.34191 11.4949 2.4207 11.6ZM10.0007 6C10.2659 6 10.5203 6.10536 10.7078 6.29289C10.8953 6.48043 11.0007 6.73478 11.0007 7V10.5C11.0007 10.7652 10.8953 11.0196 10.7078 11.2071C10.5203 11.3946 10.2659 11.5 10.0007 11.5C9.73549 11.5 9.48113 11.3946 9.2936 11.2071C9.10606 11.0196 9.0007 10.7652 9.0007 10.5V7C9.0007 6.73478 9.10606 6.48043 9.2936 6.29289C9.48113 6.10536 9.73549 6 10.0007 6Z" fill="#282B89"/>
<path fill-rule="evenodd" clip-rule="evenodd" d="M14 10.5C14 10.7652 13.8946 11.0196 13.7071 11.2071C13.5196 11.3946 13.2652 11.5 13 11.5H10C9.73478 11.5 9.48043 11.3946 9.29289 11.2071C9.10536 11.0196 9 10.7652 9 10.5C9 10.2348 9.10536 9.98043 9.29289 9.79289C9.48043 9.60536 9.73478 9.5 10 9.5H13C13.2652 9.5 13.5196 9.60536 13.7071 9.79289C13.8946 9.98043 14 10.2348 14 10.5Z" fill="#282B89"/>
</svg>
