<svg width="85" height="78" viewBox="0 0 85 78" fill="none" xmlns="http://www.w3.org/2000/svg">
<rect width="85" height="78" rx="4" fill="#CED5FA"/>
<path d="M56.9375 24.75C58.4609 24.75 59.75 26.0391 59.75 27.5625V46.3125C59.75 47.8945 58.4609 49.125 56.9375 49.125H45.6875L46.625 51.9375H50.8438C51.6055 51.9375 52.25 52.582 52.25 53.3438C52.25 54.1641 51.6055 54.75 50.8438 54.75H34.9062C34.0859 54.75 33.5 54.1641 33.5 53.3438C33.5 52.582 34.0859 51.9375 34.9062 51.9375H39.125L40.0625 49.125H28.8125C27.2305 49.125 26 47.8945 26 46.3125V27.5625C26 26.0391 27.2305 24.75 28.8125 24.75H56.9375ZM56 45.375V28.5H29.75V45.375H56Z" fill="#5B72EE"/>
</svg>
