<svg width="46" height="46" viewBox="0 0 46 46" fill="none" xmlns="http://www.w3.org/2000/svg">
<rect width="46" height="46" transform="translate(-0.00341797)" fill="#363B47" fill-opacity="0.4"/>
<path fill-rule="evenodd" clip-rule="evenodd" d="M30.0393 17.3855C30.8103 17.5931 31.4182 18.2009 31.6257 18.972C32.0113 20.3805 31.9965 23.3163 31.9965 23.3163C31.9965 23.3163 31.9965 26.2371 31.6259 27.6457C31.4182 28.4167 30.8104 29.0246 30.0393 29.2321C28.6307 29.6029 22.9965 29.6029 22.9965 29.6029C22.9965 29.6029 17.3771 29.6029 15.9538 29.2174C15.1827 29.0098 14.5749 28.4018 14.3672 27.6309C13.9966 26.2371 13.9966 23.3015 13.9966 23.3015C13.9966 23.3015 13.9966 20.3805 14.3672 18.972C14.5747 18.2011 15.1975 17.5783 15.9537 17.3708C17.3622 17 22.9964 17 22.9964 17C22.9964 17 28.6307 17 30.0393 17.3855ZM25.8879 23.3015L21.2026 26.0001V20.603L25.8879 23.3015Z" fill="white"/>
</svg>
